<svg id="visual" viewBox="0 0 500 500" width="500" height="500" xmlns="http://www.w3.org/2000/svg" xmlns:xlink="http://www.w3.org/1999/xlink" version="1.1"><rect x="0" y="0" width="500" height="500" fill="#ffffff"></rect><defs><linearGradient id="grad1_0" x1="0%" y1="100%" x2="100%" y2="0%"><stop offset="30%" stop-color="#439efe" stop-opacity="1"></stop><stop offset="70%" stop-color="#439efe" stop-opacity="1"></stop></linearGradient></defs><defs><linearGradient id="grad1_1" x1="0%" y1="100%" x2="100%" y2="0%"><stop offset="30%" stop-color="#439efe" stop-opacity="1"></stop><stop offset="70%" stop-color="#b2cdff" stop-opacity="1"></stop></linearGradient></defs><defs><linearGradient id="grad1_2" x1="0%" y1="100%" x2="100%" y2="0%"><stop offset="30%" stop-color="#ffffff" stop-opacity="1"></stop><stop offset="70%" stop-color="#b2cdff" stop-opacity="1"></stop></linearGradient></defs><defs><linearGradient id="grad2_0" x1="0%" y1="100%" x2="100%" y2="0%"><stop offset="30%" stop-color="#439efe" stop-opacity="1"></stop><stop offset="70%" stop-color="#439efe" stop-opacity="1"></stop></linearGradient></defs><defs><linearGradient id="grad2_1" x1="0%" y1="100%" x2="100%" y2="0%"><stop offset="30%" stop-color="#b2cdff" stop-opacity="1"></stop><stop offset="70%" stop-color="#439efe" stop-opacity="1"></stop></linearGradient></defs><defs><linearGradient id="grad2_2" x1="0%" y1="100%" x2="100%" y2="0%"><stop offset="30%" stop-color="#b2cdff" stop-opacity="1"></stop><stop offset="70%" stop-color="#ffffff" stop-opacity="1"></stop></linearGradient></defs><g transform="translate(500, 500)"><path d="M-265.2 0C-264 -17.5 -262.9 -35 -257.9 -51.3C-253 -67.6 -244.3 -82.8 -236.5 -98C-228.7 -113.2 -221.8 -128.4 -212.9 -142.2C-203.9 -156 -192.8 -168.3 -181.7 -181.7C-170.7 -195.1 -159.7 -209.6 -145 -217C-130.3 -224.4 -111.8 -224.7 -96.1 -231.9C-80.3 -239.1 -67.3 -253.4 -51.7 -260.1C-36.2 -266.8 -18.1 -266 0 -265.2L0 0Z" fill="#dae6ff"></path><path d="M-176.8 0C-176 -11.7 -175.2 -23.3 -172 -34.2C-168.7 -45.1 -162.9 -55.2 -157.7 -65.3C-152.5 -75.4 -147.9 -85.6 -141.9 -94.8C-135.9 -104 -128.5 -112.2 -121.2 -121.2C-113.8 -130.1 -106.5 -139.8 -96.7 -144.7C-86.9 -149.6 -74.5 -149.8 -64 -154.6C-53.5 -159.4 -44.9 -168.9 -34.5 -173.4C-24.1 -177.9 -12.1 -177.3 0 -176.8L0 0Z" fill="#84b5ff"></path><path d="M-88.4 0C-88 -5.8 -87.6 -11.7 -86 -17.1C-84.3 -22.5 -81.4 -27.6 -78.8 -32.7C-76.2 -37.7 -73.9 -42.8 -71 -47.4C-68 -52 -64.3 -56.1 -60.6 -60.6C-56.9 -65 -53.2 -69.9 -48.3 -72.3C-43.4 -74.8 -37.3 -74.9 -32 -77.3C-26.8 -79.7 -22.4 -84.5 -17.2 -86.7C-12.1 -88.9 -6 -88.7 0 -88.4L0 0Z" fill="#439efe"></path></g><g transform="translate(0, 0)"><path d="M265.2 0C260.1 17 255.1 34 249.1 49.6C243.1 65.1 236.1 79.2 232.8 96.4C229.5 113.7 229.9 134 220.5 147.3C211.1 160.6 192 166.9 178.9 178.9C165.8 190.9 158.8 208.7 145.6 217.8C132.3 227 112.8 227.7 96.1 231.9C79.3 236.1 65.3 244 49.7 250.1C34.2 256.2 17.1 260.7 0 265.2L0 0Z" fill="#dae6ff"></path><path d="M176.8 0C173.4 11.3 170.1 22.7 166.1 33C162.1 43.4 157.4 52.8 155.2 64.3C153 75.8 153.2 89.3 147 98.2C140.7 107.1 128 111.3 119.3 119.3C110.6 127.3 105.9 139.1 97 145.2C88.2 151.4 75.2 151.8 64 154.6C52.9 157.4 43.5 162.6 33.2 166.7C22.8 170.8 11.4 173.8 0 176.8L0 0Z" fill="#84b5ff"></path><path d="M88.4 0C86.7 5.7 85 11.3 83 16.5C81 21.7 78.7 26.4 77.6 32.1C76.5 37.9 76.6 44.7 73.5 49.1C70.4 53.5 64 55.6 59.6 59.6C55.3 63.6 52.9 69.6 48.5 72.6C44.1 75.7 37.6 75.9 32 77.3C26.4 78.7 21.8 81.3 16.6 83.4C11.4 85.4 5.7 86.9 0 88.4L0 0Z" fill="#439efe"></path></g></svg>